<svg width="211" height="200" viewBox="0 0 211 200" fill="none" xmlns="http://www.w3.org/2000/svg">
<rect width="210.377" height="200" rx="31" fill="#F9F2EB"/>
<rect width="210.377" height="200" rx="31" fill="#F9F2EB"/>
<path d="M21.6982 54.5283C21.6982 37.9598 35.1297 24.5283 51.6982 24.5283H82.0756V175.472H51.6983C35.1297 175.472 21.6982 162.04 21.6982 145.472V54.5283Z" fill="#1E2E67"/>
<path d="M184.906 145.472C184.906 162.04 171.474 175.472 154.906 175.472L124.528 175.472L124.528 63.2074L154.906 63.2074C171.474 63.2074 184.906 76.6389 184.906 93.2074L184.906 145.472Z" fill="#1E2E67"/>
<path d="M94.5286 24.5283C111.097 24.5283 124.529 37.9598 124.529 54.5283L124.529 84.9057L58.4908 84.9057L58.4908 54.5283C58.4908 37.9598 71.9223 24.5283 88.4908 24.5283L94.5286 24.5283Z" fill="#1E2E67"/>
<path d="M106.604 124.528C121.193 124.528 133.019 136.355 133.019 150.943V150.943L66.9813 150.943V150.943C66.9813 136.355 78.8078 124.528 93.3964 124.528L106.604 124.528Z" fill="#1E2E67"/>
<path d="M178.774 24.5283C182.16 24.5283 184.906 27.2737 184.906 30.6604V30.6604C184.906 34.0471 182.16 36.7925 178.774 36.7925L149.057 36.7925V36.7925C149.057 30.0192 154.548 24.5283 161.321 24.5283L178.774 24.5283Z" fill="#1E2E67"/>
</svg>
